<?xml version="1.0" standalone="no"?>
<!DOCTYPE svg PUBLIC "-//W3C//DTD SVG 20010904//EN"
 "http://www.w3.org/TR/2001/REC-SVG-20010904/DTD/svg10.dtd">
<svg version="1.0" xmlns="http://www.w3.org/2000/svg"
 width="16.000000pt" height="16.000000pt" viewBox="0 0 16.000000 16.000000"
 preserveAspectRatio="xMidYMid meet">
<metadata>
Created by potrace 1.11, written by Peter Selinger 2001-2013
</metadata>
<g transform="translate(0.000000,16.000000) scale(0.001564,-0.001564)"
fill="#000000" stroke="none">
<path d="M5284 8705 c-86 -19 -226 -94 -291 -154 -58 -55 -189 -121 -239 -121
-14 0 -60 16 -102 36 -340 162 -565 189 -737 88 -47 -27 -138 -119 -188 -189
-31 -44 -81 -142 -101 -200 -40 -112 -62 -360 -44 -495 4 -30 10 -79 13 -107
l5 -53 -27 5 c-16 3 -68 12 -118 20 -93 16 -345 78 -395 98 -35 14 -159 49
-205 58 -104 21 -144 24 -290 23 -170 -1 -237 -14 -350 -71 -121 -60 -157 -85
-225 -153 -67 -66 -135 -181 -146 -247 -3 -15 -7 -35 -9 -43 -8 -30 -26 -196
-26 -245 0 -73 25 -174 67 -262 106 -226 316 -414 626 -563 127 -61 273 -120
295 -120 18 0 16 -20 -2 -21 -44 -4 -137 -40 -191 -75 -108 -68 -138 -150 -90
-246 52 -106 208 -243 348 -305 34 -16 138 -62 232 -103 135 -60 171 -80 172
-95 2 -39 15 -151 24 -210 5 -33 12 -96 16 -140 3 -44 8 -83 11 -87 2 -5 -26
-9 -64 -9 -37 -1 -81 -3 -98 -4 -16 -2 -70 -6 -119 -10 -49 -3 -92 -8 -96 -10
-4 -2 -22 -7 -41 -10 -68 -11 -241 -80 -278 -111 -51 -45 -85 -115 -76 -162
31 -164 246 -327 658 -499 l158 -66 -6 -61 c-15 -159 -28 -234 -72 -404 -110
-428 -287 -703 -533 -827 -30 -15 -62 -31 -72 -36 -58 -29 -200 -52 -323 -51
-208 0 -375 59 -531 187 -63 52 -96 69 -159 79 -43 8 -113 -28 -129 -68 -27
-62 1 -179 63 -270 34 -48 145 -156 190 -182 17 -10 31 -22 31 -26 0 -4 4 -8
10 -8 5 0 42 -22 82 -48 65 -44 119 -72 268 -140 189 -87 820 -226 1160 -256
36 -3 90 -9 120 -12 205 -21 871 -33 1070 -20 63 4 140 9 170 11 30 1 96 6
145 9 88 6 161 10 360 21 112 6 142 10 270 31 93 15 116 20 150 28 11 2 72 16
135 31 63 14 153 38 200 53 47 14 87 26 90 27 25 5 193 66 301 110 362 149
679 402 885 707 152 226 275 530 328 813 8 44 26 139 40 210 26 134 40 227 38
257 0 12 9 20 26 24 15 3 34 8 42 11 8 3 26 7 40 9 54 10 216 66 284 99 309
149 510 397 606 749 26 95 29 107 36 186 4 36 13 90 21 120 22 82 26 254 8
323 -42 160 -128 243 -262 251 -149 9 -231 -62 -257 -220 -8 -49 -24 -107 -35
-128 -12 -22 -23 -56 -27 -75 -12 -75 -59 -156 -131 -226 -62 -61 -66 -62
-188 -81 -22 -3 -57 -9 -77 -14 l-38 -8 -1 42 c0 22 -2 50 -3 61 -2 11 -6 54
-10 95 -30 289 -93 605 -181 895 -67 222 -101 317 -145 413 -27 56 -47 102
-45 102 1 0 21 -29 44 -65 42 -68 49 -72 84 -53 116 61 285 192 382 297 214
227 350 557 360 868 5 163 -36 314 -125 464 -78 132 -177 207 -341 259 -94 31
-112 33 -238 33 -203 0 -377 -39 -561 -125 -47 -22 -94 -44 -105 -49 -11 -5
-27 -13 -35 -18 -8 -5 -71 -44 -140 -86 -69 -42 -165 -103 -215 -135 -49 -32
-94 -58 -100 -56 -5 1 -11 11 -12 22 -10 111 -23 173 -55 269 -40 118 -81 190
-128 221 -33 22 -46 25 -96 20 -32 -3 -80 -17 -108 -30 l-50 -25 -51 43 c-77
65 -169 125 -259 166 -111 53 -185 65 -272 45z m1159 -1380 c216 -116 343
-194 464 -284 100 -74 104 -79 144 -161 58 -119 141 -373 97 -295 -9 17 -52
70 -180 225 -50 60 -117 128 -173 175 -171 143 -269 216 -352 264 -51 30 -93
57 -93 62 0 5 -4 9 -10 9 -8 0 -94 37 -175 75 -29 14 -27 15 44 15 l75 0 159
-85z m-380 -166 c102 -4 178 -33 241 -92 44 -42 50 -93 14 -116 -22 -14 -76
-16 -128 -6 -13 3 -42 7 -65 10 -114 17 -240 78 -251 122 -4 14 -3 33 3 42 14
24 74 51 101 46 13 -2 52 -5 85 -6z m-1389 -154 c17 -8 36 -28 42 -43 22 -59
-15 -113 -121 -175 -38 -22 -72 -43 -75 -46 -18 -22 -239 -132 -309 -154 -74
-24 -107 -22 -136 8 -31 30 -33 85 -5 138 34 62 53 76 109 75 62 0 283 93 386
163 39 26 72 48 73 48 2 1 18 -6 36 -14z m2315 -254 c51 -60 101 -120 110
-134 9 -14 28 -41 44 -60 25 -32 35 -64 52 -182 3 -22 12 -83 20 -135 19 -131
24 -174 31 -258 3 -40 7 -81 9 -92 2 -10 7 -59 10 -107 4 -48 8 -104 11 -123
2 -19 6 -77 10 -130 3 -52 7 -106 9 -119 10 -60 19 -368 19 -611 0 -295 -10
-529 -28 -665 -3 -16 -7 -52 -11 -80 -5 -41 -19 -120 -30 -170 -1 -5 -5 -31
-10 -58 -4 -26 -11 -49 -15 -52 -4 -2 -4 14 1 38 4 23 10 74 14 112 4 39 8 84
10 100 24 220 24 868 0 1160 -2 22 -7 83 -10 135 -3 52 -8 111 -10 130 -2 19
-7 67 -10 105 -3 39 -8 88 -11 110 -9 79 -13 111 -19 165 -6 58 -13 115 -21
165 -3 17 -7 41 -9 55 -2 14 -8 54 -14 90 -6 36 -12 81 -15 100 -17 140 -112
393 -210 559 -19 34 -32 61 -28 61 4 0 49 -49 101 -109z m1645 -1791 c-9 -36
-18 -72 -22 -80 -7 -20 -7 -21 -17 -55 -9 -31 -32 -87 -68 -165 -62 -135 -209
-303 -342 -392 -127 -86 -360 -179 -505 -202 l-32 -5 7 42 c3 23 8 69 11 102
6 69 8 72 49 78 46 7 214 54 273 77 144 55 286 146 393 252 64 63 159 186 159
206 0 6 3 12 8 14 8 3 51 90 77 156 10 24 19 41 21 40 1 -2 -4 -33 -12 -68z
m-1117 -1547 c-3 -5 -18 -51 -35 -103 -131 -408 -320 -699 -612 -944 -104 -87
-284 -208 -387 -260 -91 -45 -315 -137 -373 -151 -3 -1 -12 -4 -20 -8 -101
-40 -432 -124 -595 -151 -143 -24 -156 -25 -276 -31 -63 -3 -152 -7 -199 -10
-269 -13 -336 -17 -345 -22 -7 -4 -7 -2 0 5 6 5 37 13 70 17 324 39 773 157
1032 271 17 8 34 14 37 14 3 0 47 20 98 45 51 24 161 66 243 93 250 82 386
144 565 260 125 81 238 171 343 276 103 103 157 169 240 296 46 71 157 278
157 293 0 11 50 117 55 117 4 0 4 -3 2 -7z"/>
<path d="M2381 3560 c-53 -13 -84 -42 -110 -106 -21 -50 -25 -74 -24 -164 1
-131 27 -250 89 -413 76 -201 75 -198 93 -192 9 2 41 7 71 10 90 7 130 16 201
41 146 53 267 140 371 269 27 33 54 66 60 74 9 11 -9 33 -88 110 -186 180
-281 253 -420 320 -51 25 -180 63 -202 60 -4 -1 -22 -5 -41 -9z"/>
</g>
</svg>
